<svg height="20" viewBox="0 0 20 20" width="20" xmlns="http://www.w3.org/2000/svg"><path d="m17.5 15.2422v2.7578c0 .412-.4704.6472-.8.4l-1.4-1.05c-.1778-.1333-.4222-.1333-.6 0l-1.4 1.05c-.3296.2472-.8.012-.8-.4v-2.7578c.715.4787 1.5749.7578 2.5.7578s1.785-.2791 2.5-.7578zm-1.5-12.2422c1.0543909 0 1.9181678.81587733 1.9945144 1.85073759l.0054856.14926241v3.14584c-.23992-.214712-.502944-.4040672-.784976-.56385184l-.215024-.11422816v-2.46776c0-.51283143-.386027-.93550653-.8833761-.9932722l-.1166239-.0067278h-12c-.51283143 0-.93550653.38604429-.9932722.88337975l-.0067278.11662025v8c0 .51285.38604429.9355092.88337975.9932725l.11662025.0067275h7.2578l.1174625.1672.1247375.1615v.6713h-7.5c-1.05436227 0-1.91816517-.81585-1.99451427-1.8507339l-.00548573-.1492661v-8c0-1.05436227.81587733-1.91816517 1.85073759-1.99451427l.14926241-.00548573zm-1 5c1.933 0 3.5 1.567 3.5 3.5s-1.567 3.5-3.5 3.5-3.5-1.567-3.5-3.5 1.567-3.5 3.5-3.5zm-5.5 3c.27614 0 .5.2239.5.5 0 .2454222-.17687704.4496-.41012499.4919429l-.08987501.0080571h-4c-.27614 0-.5-.2239-.5-.5 0-.2454222.17687704-.4496.41012499-.4919429l.08987501-.0080571zm5-5c.2761 0 .5.22386.5.5s-.2239.5-.5.5h-9c-.27614 0-.5-.22386-.5-.5s.22386-.5.5-.5z" fill="#212121"/></svg>