<?xml version="1.0"?>
<svg version="1.1" xmlns="http://www.w3.org/2000/svg" width="400" height="200" style="border: dashed 2px #aaa"><path fill="#ffffff" d="M35.804,114.42l0,2.38l-8.904,0l0-2.38l2.1-0.756l-0.672-2.044l-6.216,0l-0.7,2.016l2.184,0.784l0,2.38l-8.456,0l0-2.38l2.044-0.784l6.16-16.492l4.48-0.084l6.02,16.576z M27.404,108.624l-2.1-6.636l-2.212,6.636l4.312,0z M44.80628,101.68l0.196,1.932s2.66-2.156,5.152-2.156c2.716,0,4.256,1.932,4.256,4.984l0,7.42l1.96,0.7l0,2.24l-7.7,0l0-2.24l1.54-0.7l0-6.664c0-1.288-0.728-2.24-1.904-2.24c-1.736,0-2.996,1.596-2.996,1.596l0,7.308l1.54,0.7l0,2.24l-7.98,0l0-2.24l2.24-0.7l0-9.1l-2.24-0.7l0-2.24z M62.60056,111.9l0.224,1.82s0.98,0.28,2.352,0.28c1.54,0,2.296-0.476,2.296-1.372c0-2.296-7.476-1.456-7.476-6.44c0-3.5,2.8-4.788,5.768-4.788c2.52,0,5.208,0.84,5.208,0.84l-0.112,4.2l-2.38,0l-0.42-1.68s-0.812-0.28-1.932-0.28c-1.204,0-1.932,0.504-1.932,1.428c0,2.268,7.476,1.288,7.476,6.132c0,3.22-2.604,5.04-6.44,5.04c-2.66,0-5.152-0.616-5.152-0.616l0-4.564l2.52,0z M81.59884,95.1l0,8.204c0.812-0.672,2.632-1.904,4.704-1.904c2.856,0,4.396,1.904,4.396,5.04l0,7.42l1.96,0.7l0,2.24l-7.616,0l0-2.24l1.456-0.672l0-6.776c0-1.4-0.56-2.24-1.848-2.24c-1.568,0-3.052,1.484-3.052,1.484l0,7.504l1.484,0.7l0,2.24l-7.924,0l0-2.24l2.24-0.7l0-15.736l-2.24-0.56l0-2.24z M95.72512,104.06l0-2.24l6.44-0.14l0,9.66c0,1.54,0.448,2.24,1.708,2.24c1.82,0,3.164-1.512,3.164-1.512l0-7.308l-2.24-0.7l0-2.24l6.44-0.14l0,12.18l2.24,0.56l0,2.184l-5.908,0.196l-0.28-1.96s-2.24,2.24-4.9,2.24c-2.8,0-4.424-1.876-4.424-5.012l0-7.308z M123.0114,113.86l2.52,0.7l0,2.24l-8.988,0l0-2.24l2.24-0.7l0-15.736l-2.24-0.56l0-2.24l6.468-0.224l0,18.76z M129.43768,114.616c0-1.596,1.148-2.52,2.408-2.52c1.54,0,2.352,0.924,2.352,2.52c0,1.624-1.148,2.548-2.408,2.548c-1.54,0-2.352-0.924-2.352-2.548z M140.67996,97.06c0-1.596,1.148-2.52,2.408-2.52c1.456,0,2.352,0.756,2.352,2.52c0,1.652-1.204,2.548-2.352,2.548c-1.512,0-2.408-0.896-2.408-2.548z M145.38396,113.86l1.96,0.7l0,2.24l-8.4,0l0-2.24l2.24-0.7l0-9.1l-2.24-0.7l0-2.24l6.44-0.14l0,12.18z M157.04624,101.68l0.196,1.932s2.66-2.156,5.152-2.156c2.716,0,4.256,1.932,4.256,4.984l0,7.42l1.96,0.7l0,2.24l-7.7,0l0-2.24l1.54-0.7l0-6.664c0-1.288-0.728-2.24-1.904-2.24c-1.736,0-2.996,1.596-2.996,1.596l0,7.308l1.54,0.7l0,2.24l-7.98,0l0-2.24l2.24-0.7l0-9.1l-2.24-0.7l0-2.24z"/><path fill="#ffffff" d=""/></svg>
